<?xml version="1.0" encoding="UTF-8"?>
<!DOCTYPE svg PUBLIC "-//W3C//DTD SVG 1.1 Tiny//EN" "http://www.w3.org/Graphics/SVG/1.1/DTD/svg11-tiny.dtd">
<svg baseProfile="tiny" height="16" version="1.1" viewBox="0 0 16 16" width="16" xmlns="http://www.w3.org/2000/svg" xmlns:xlink="http://www.w3.org/1999/xlink">
<g>
<rect fill="none" height="16" width="16"/>
<g>
<circle cx="8" cy="8" r="7"/>
<radialGradient cx="7.8779" cy="5.0117" gradientUnits="userSpaceOnUse" id="XMLID_4_" r="8.3632">
<stop offset="0" style="stop-color:#FFF000"/>
<stop offset="1" style="stop-color:#FFBF00"/>
</radialGradient>
<circle cx="8" cy="8" fill="url(#XMLID_4_)" r="6.5"/>
<path d="M6.77,5.437H6.768C6.534,5.89,6.054,6.189,5.517,6.189c-0.074,0-0.153-0.009-0.229-0.02    C4.661,6.071,4.207,5.592,4.105,5.021L3.367,5.149c0.02,0.113,0.072,0.214,0.109,0.32C3.082,5.696,2.647,5.938,2.208,5.938    c0.489,0.195,1.056,0.272,1.668,0.238c0.324,0.374,0.766,0.651,1.299,0.736c0.112,0.016,0.226,0.024,0.342,0.024    c0.816,0,1.551-0.455,1.916-1.156L6.77,5.437z"/>
<path d="M9.147,5.437h0.002C9.383,5.89,9.863,6.189,10.4,6.189c0.074,0,0.153-0.009,0.229-0.02    c0.627-0.099,1.081-0.578,1.183-1.149l0.738,0.129c-0.02,0.113-0.072,0.214-0.109,0.32c0.395,0.227,0.829,0.469,1.268,0.469    c-0.489,0.195-1.056,0.272-1.668,0.238c-0.324,0.374-0.766,0.651-1.299,0.736c-0.112,0.016-0.226,0.024-0.342,0.024    c-0.816,0-1.551-0.455-1.916-1.156L9.147,5.437z"/>
<path d="M9.484,9.345c-0.842-0.234-1.441,0.672-1.441,0.672s-0.6-0.906-1.441-0.672s-1.627,1.438-2.512,1.359    c2.283,0.781,2.34,2.057,3.953,2.244c1.612-0.188,1.67-1.463,3.953-2.244C11.111,10.782,10.326,9.579,9.484,9.345z" fill="#ED2F42"/>
<path d="M8.042,9.634c-0.96-1.035-1.815-0.496-2.656,0.17c-0.446,0.354-1.058,0.743-1.604,0.868    c0.171,0.117,1.641,0.844,2.369,1.563c1.47,1.292,2.363,1.247,3.783,0c0.598-0.595,2.066-1.407,2.299-1.531    c-0.561-0.22-1.088-0.547-1.534-0.9C9.628,8.956,8.918,8.69,8.042,9.634z M9.417,9.585c0.412,0.103,1.465,0.956,1.91,1.147    c-0.747,0.355-1.332,0.785-1.723,1.127c-1.288,1.132-1.892,1.081-3.123,0c-0.39-0.342-0.902-0.771-1.649-1.127    c0.487-0.207,1.435-1.061,1.836-1.147c0.663-0.144,1.375,0.681,1.375,0.681S8.758,9.421,9.417,9.585z"/>
<radialGradient cx="3.3423" cy="8.376" gradientUnits="userSpaceOnUse" id="XMLID_5_" r="1.417">
<stop offset="0" style="stop-color:#F15A24"/>
<stop offset="0.425" style="stop-color:#F78614"/>
<stop offset="1" style="stop-color:#FFBF00"/>
</radialGradient>
<circle cx="3.342" cy="8.376" fill="url(#XMLID_5_)" r="1.417"/>
<radialGradient cx="12.7593" cy="8.376" gradientUnits="userSpaceOnUse" id="XMLID_6_" r="1.417">
<stop offset="0" style="stop-color:#F15A24"/>
<stop offset="0.425" style="stop-color:#F78614"/>
<stop offset="1" style="stop-color:#FFBF00"/>
</radialGradient>
<circle cx="12.759" cy="8.376" fill="url(#XMLID_6_)" r="1.417"/>
</g>
</g>
</svg>
