<?xml version="1.0" encoding="UTF-8" standalone="no"?>
<!DOCTYPE svg PUBLIC "-//W3C//DTD SVG 1.1 Tiny//EN" "http://www.w3.org/Graphics/SVG/1.1/DTD/svg11-tiny.dtd">
<svg xmlns="http://www.w3.org/2000/svg" xmlns:xlink="http://www.w3.org/1999/xlink" baseProfile="tiny" height="16" preserveAspectRatio="xMidYMid meet" viewBox="0 0 16 16" width="16">
<defs>
<radialGradient cx="7.878" cy="5.012" gradientUnits="userSpaceOnUse" id="shape7grad" r="8.364">
<stop offset="0" stop-color="#FFF000"/>
<stop offset="1" stop-color="#FFBF00"/>
</radialGradient>
</defs>
<g>
<g transform="translate(0.001) scale(1 1)">
<g>
<circle cx="8" cy="8" r="7" style="fill:rgb(0,0,0);fill-rule:evenodd"/>
<path d="M14.5 8 C14.5 11.59 11.589 14.5 8 14.5 C4.41 14.5 1.5 11.59 1.5 8 C1.5 4.411 4.41 1.5 8 1.5 C11.589 1.5 14.5 4.411 14.5 8 z" transform="translate(0)" style="fill:url(#shape7grad);fill-rule:evenodd"/>
</g>
<path d="M7.69 6.626 C7.69 7.731 6.795 8.626 5.688 8.626 C4.584 8.626 3.69 7.731 3.69 6.626 C3.69 5.521 4.585 4.626 5.688 4.626 C6.796 4.626 7.69 5.521 7.69 6.626 z" transform="translate(0 0.001)" style="fill:rgb(255,255,255);fill-rule:evenodd"/>
<path d="M12.311 6.626 C12.311 7.731 11.415 8.626 10.311 8.626 C9.206 8.626 8.311 7.731 8.311 6.626 C8.311 5.522 9.206 4.626 10.311 4.626 C11.415 4.626 12.311 5.522 12.311 6.626 z" transform="translate(0 0.001)" style="fill:rgb(255,255,255);fill-rule:evenodd"/>
<path d="M6.69 6.626 C6.69 7.179 6.242 7.626 5.69 7.626 C5.137 7.626 4.69 7.179 4.69 6.626 C4.69 6.074 5.137 5.626 5.69 5.626 C6.242 5.626 6.69 6.074 6.69 6.626 z" transform="translate(0 0.001)" style="fill:rgb(0,0,0);fill-rule:evenodd"/>
<path d="M11.311 6.626 C11.311 7.179 10.863 7.626 10.311 7.626 C9.758 7.626 9.311 7.179 9.311 6.626 C9.311 6.074 9.758 5.626 10.311 5.626 C10.863 5.626 11.311 6.074 11.311 6.626 z" transform="translate(0 0.001)" style="fill:rgb(0,0,0);fill-rule:evenodd"/>
<g transform="translate(0.001)">
<path d="M13.105 9.563 L13.037 8.744 C9.813 8.95 7.683 10.356 5.587 10.336 C4.862 10.334 4.132 10.19 3.316 9.78 L2.961 10.495 L2.958 10.495 C3.711 10.872 4.431 11.056 5.129 11.11 C5.345 12.956 6.485 14.094 7.77 13.946 C9.577 13.739 10.338 12.202 10.367 10.046 C11.209 9.815 12.103 9.62 13.105 9.563 z" transform="translate(0 0.001)" style="fill:rgb(0,0,0);fill-rule:evenodd"/>
<path d="M7.547 13.459 C7.047 13.459 6.573 13.191 6.217 12.709 C5.908 12.293 5.705 11.737 5.625 11.107 C5.928 10.814 6.781 10.627 7.579 10.9 C7.923 10.416 9.45 10.14 9.822 10.265 C9.822 12.083 9.02 13.296 7.712 13.449 C7.657 13.457 7.603 13.459 7.547 13.459 z" transform="translate(0.001 0.001)" style="fill:rgb(255,46,0);fill-rule:evenodd"/>
</g>
</g>
</g>
</svg>
