<?xml version="1.0" encoding="UTF-8"?>
<!DOCTYPE svg PUBLIC "-//W3C//DTD SVG 1.1 Tiny//EN" "http://www.w3.org/Graphics/SVG/1.1/DTD/svg11-tiny.dtd">
<svg baseProfile="tiny" height="16px" version="1.1" viewBox="0 0 15.999 16" width="15.999px" x="0px" xmlns="http://www.w3.org/2000/svg" xmlns:xlink="http://www.w3.org/1999/xlink" y="0px">
<g>
<g>
<g>
<g>
<circle cx="8" cy="8" r="7"/>
<radialGradient cx="7.8774" cy="5.0117" gradientUnits="userSpaceOnUse" id="SVGID_1_" r="8.3635">
<stop offset="0" style="stop-color:#FFF000"/>
<stop offset="1" style="stop-color:#FFBF00"/>
</radialGradient>
<circle cx="8" cy="8" fill="url(#SVGID_1_)" r="6.5"/>
<path d="M12.091,9.686c-0.354,1.25-1.917,2.896-3.604,2.854c-1.748-0.043-3.271-2.166-3.896-2.729S3.215,9.28,3.089,9.85      c-0.421,0.914,1.363,3.421,5.286,3.482c2.07,0.033,4.5-2.191,4.5-3.625L12.091,9.686z"/>
<g display="none">
<g display="inline">
<path d="M5.354,7.193c0.639,0.369,1.454,0.15,1.82-0.486C6.639,6.396,5.37,5.663,4.869,5.373        C4.501,6.011,4.719,6.827,5.354,7.193z M11.132,5.373c-0.539,0.312-1.731,1-2.31,1.333c0.367,0.638,1.182,0.855,1.819,0.488        C11.282,6.826,11.498,6.011,11.132,5.373z" fill="#FFFFFF"/>
</g>
</g>
</g>
</g>
<path d="M8.097,8.5c0.138-0.369,0.256-2.075-0.613-3.23C6.532,4.007,4.759,3.896,4.611,4.007c-0.146,0.111,1.391,0.399,2.34,1.662    C7.431,6.304,7.67,7.065,7.808,7.65C7.486,7.085,6.913,6.417,6.086,6.046C4.643,5.401,3.004,5.92,2.863,6.234    c-0.14,0.313,1.272,0.301,2.715,0.947C7.021,7.827,7.95,8.886,8.091,8.573C8.099,8.555,8.094,8.523,8.097,8.5z"/>
</g>
<ellipse cx="10.956" cy="6.588" fill="#FFFFFF" rx="1.89" ry="1.985"/>
<ellipse cx="10.955" cy="6.588" rx="0.978" ry="1.026"/>
</g>
</svg>
