<?xml version="1.0" encoding="UTF-8"?>
<!DOCTYPE svg PUBLIC "-//W3C//DTD SVG 1.1 Tiny//EN" "http://www.w3.org/Graphics/SVG/1.1/DTD/svg11-tiny.dtd">
<svg baseProfile="tiny" height="16px" version="1.1" viewBox="0 0 15.999 16" width="15.999px" x="0px" xmlns="http://www.w3.org/2000/svg" xmlns:xlink="http://www.w3.org/1999/xlink" y="0px">
<g>
<g>
<circle cx="8" cy="8" r="7"/>
<radialGradient cx="7.8774" cy="5.0117" gradientUnits="userSpaceOnUse" id="SVGID_1_" r="8.3632">
<stop offset="0" style="stop-color:#FFF000"/>
<stop offset="1" style="stop-color:#FFBF00"/>
</radialGradient>
<circle cx="8" cy="8" fill="url(#SVGID_1_)" r="6.5"/>
<path d="M8.057,8.25C5.766,8.25,2.999,8,2.999,8c0,2.761,2.239,5,5,5S13,10.761,13,8    C13,8,10.348,8.25,8.057,8.25z" fill="#FFFFFF" stroke="#000000"/>
<g display="none">
<g display="inline">
<path d="M5.354,7.193c0.639,0.369,1.454,0.15,1.82-0.486C6.639,6.396,5.37,5.663,4.869,5.373      C4.501,6.011,4.719,6.827,5.354,7.193z M11.132,5.373c-0.539,0.312-1.731,1-2.31,1.333c0.367,0.638,1.182,0.855,1.819,0.488      C11.282,6.826,11.498,6.011,11.132,5.373z" fill="#FFFFFF"/>
</g>
</g>
</g>
<path d="M7.878,5.835c0,0.321-0.693-0.134-1.697-0.134c-1,0-1.931,0.455-1.931,0.134c0-0.32,0.752-1.294,1.752-1.294   C7.006,4.541,7.878,5.515,7.878,5.835z"/>
<path d="M11.986,5.835c0,0.321-0.693-0.134-1.697-0.134c-1,0-1.931,0.455-1.931,0.134c0-0.32,0.752-1.294,1.752-1.294   C11.114,4.541,11.986,5.515,11.986,5.835z"/>
</g>
</svg>
