<?xml version="1.0" encoding="UTF-8"?>
<!DOCTYPE svg PUBLIC "-//W3C//DTD SVG 1.1 Tiny//EN" "http://www.w3.org/Graphics/SVG/1.1/DTD/svg11-tiny.dtd">
<svg baseProfile="tiny" height="16" version="1.1" viewBox="0 0 16 16" width="16" xmlns="http://www.w3.org/2000/svg" xmlns:xlink="http://www.w3.org/1999/xlink">
<g>
<rect fill="none" height="16" width="16"/>
<g>
<g>
<circle cx="8" cy="8.875" r="7"/>
<radialGradient cx="7.8779" cy="5.8867" gradientUnits="userSpaceOnUse" id="XMLID_2_" r="8.363">
<stop offset="0" style="stop-color:#FFF000"/>
<stop offset="1" style="stop-color:#FFBF00"/>
</radialGradient>
<circle cx="8" cy="8.875" fill="url(#XMLID_2_)" r="6.5"/>
<g>
<g>
<circle cx="5.25" cy="8.237" fill="#FFFFFF" r="2"/>
<circle cx="5.25" cy="8.237" r="1"/>
</g>
<g>
<circle cx="10.625" cy="8.362" r="2.625"/>
</g>
</g>
<rect height="0.886" transform="matrix(0.9254 0.379 -0.379 0.9254 3.5282 -2.6607)" width="13.281" x="1.881" y="7.187"/>
</g>
<path d="M14.334,5.948c-1.254-2.726-4.18-4.436-7.306-4.011C4.316,2.306,2.18,4.183,1.348,6.605L14.334,5.948z" fill="#005899"/>
<path d="M11.789,3.959c-0.299-2.202,1.635-3.846,1.635-3.846C14.27,1.896,13.557,3.633,11.789,3.959z" fill="#005899"/>
<path d="M11.799,3.918c1.262-0.861,2.523-1.119,4.016-0.286C14.523,4.93,13.688,5.127,11.799,3.918z" fill="#005899"/>
</g>
</g>
</svg>
