<?xml version="1.0" encoding="UTF-8"?>
<!DOCTYPE svg PUBLIC "-//W3C//DTD SVG 1.1 Tiny//EN" "http://www.w3.org/Graphics/SVG/1.1/DTD/svg11-tiny.dtd">
<svg baseProfile="tiny" height="16px" version="1.1" viewBox="-0.001 0 16 16" width="16px" x="0px" xmlns="http://www.w3.org/2000/svg" xmlns:xlink="http://www.w3.org/1999/xlink" y="0px">
<rect fill="none" height="16" width="15.999"/>
<radialGradient cx="7.877" cy="5.0117" gradientUnits="userSpaceOnUse" id="SVGID_1_" r="8.3634">
<stop offset="0" style="stop-color:#FFF000"/>
<stop offset="1" style="stop-color:#FFBF00"/>
</radialGradient>
<circle cx="8" cy="8" fill="url(#SVGID_1_)" r="6.5"/>
<path d="M5.264,3.677l-0.578,0.82l1.252,0.782C5.909,5.277,5.883,5.271,5.854,5.271c-0.932,0-1.688,0.756-1.688,1.688  s0.756,1.688,1.688,1.688S7.542,7.89,7.542,6.958c0-0.297-0.083-0.571-0.218-0.813l0.28,0.175L5.264,3.677z M10.133,5.271  c-0.029,0-0.057,0.007-0.085,0.009l1.266-0.782l-0.578-0.82L8.439,6.272l0.232-0.144C8.531,6.375,8.445,6.655,8.445,6.958  c0,0.932,0.756,1.688,1.688,1.688S11.82,7.89,11.82,6.958S11.064,5.271,10.133,5.271z"/>
<circle cx="5.854" cy="6.958" fill="#FFFFFF" r="1.25"/>
<circle cx="10.133" cy="6.958" fill="#FFFFFF" r="1.25"/>
<circle cx="5.854" cy="6.958" r="0.5"/>
<circle cx="10.146" cy="6.958" r="0.5"/>
<path d="M6.247,11.538c-0.629-0.475-1.146-0.824-1.412-0.798l0,0c-0.139,0.004-0.282,0.04-0.533,0.284l0,0l-0.709-0.707  c0.364-0.372,0.804-0.582,1.242-0.576l0,0c0.833,0.025,1.391,0.568,1.999,0.986l0,0c0.604,0.441,1.201,0.802,1.891,0.8l0,0  c0.664,0,1.54-0.327,2.745-1.521l0,0l0.706,0.708c-1.299,1.297-2.43,1.814-3.451,1.814l0,0C7.673,12.524,6.876,11.994,6.247,11.538  L6.247,11.538z M4.301,11.025C4.301,11.025,4.301,11.025,4.301,11.025L4.301,11.025h0.002H4.301L4.301,11.025z"/>
<path d="M7.999,1C4.134,1,1,4.134,1,8c0,3.867,3.134,7,6.999,7s7-3.133,7-7C14.999,4.134,11.864,1,7.999,1z M7.999,14.5  c-3.588,0-6.5-2.91-6.5-6.5s2.912-6.5,6.5-6.5c3.59,0,6.501,2.91,6.501,6.5S11.589,14.5,7.999,14.5z"/>
</svg>
