<?xml version="1.0" encoding="UTF-8"?>
<!DOCTYPE svg PUBLIC "-//W3C//DTD SVG 1.1 Tiny//EN" "http://www.w3.org/Graphics/SVG/1.1/DTD/svg11-tiny.dtd">
<svg baseProfile="tiny" height="16px" version="1.1" viewBox="-0.001 0 16 16" width="16px" x="0px" xmlns="http://www.w3.org/2000/svg" xmlns:xlink="http://www.w3.org/1999/xlink" y="0px">
<rect fill="none" height="16" width="15.999"/>
<radialGradient cx="8.0381" cy="4.9995" gradientUnits="userSpaceOnUse" id="SVGID_1_" r="8.6853">
<stop offset="0" style="stop-color:#FFF000"/>
<stop offset="1" style="stop-color:#FFBF00"/>
</radialGradient>
<path d="M14.916,9.042c0,3.729-3.023,5.811-6.751,5.811c-3.726,0-6.75-2.082-6.75-5.811  c0-3.726,3.024-7.689,6.75-7.689C11.893,1.354,14.916,5.316,14.916,9.042z" fill="url(#SVGID_1_)"/>
<path d="M1.166,9.043c0.008-3.849,3.086-7.919,7-7.941l0,0c3.914,0.021,6.992,4.092,7,7.941l0,0c-0.006,3.886-3.189,6.054-7,6.061  l0,0C4.356,15.097,1.172,12.929,1.166,9.043L1.166,9.043z M1.666,9.043c0.004,3.565,2.856,5.542,6.5,5.559l0,0  c3.645-0.017,6.494-1.993,6.501-5.559l0,0c-0.007-3.606-2.962-7.434-6.501-7.439l0,0C4.625,1.61,1.672,5.437,1.666,9.043  L1.666,9.043z"/>
<path d="M3.583,5.354c0,0-1.188,3.732-0.938,6.857c0.75,1,1.375,1.291,2.375,1.791  c-0.938-3.563-0.313-8.147,0.563-9.959C4.749,4.376,3.583,5.354,3.583,5.354z" fill="#1FB5FF"/>
<path d="M3.393,5.19c1.406-1.628,3.129-1.758,3.639-1.756l0,0c0.096,0,0.151,0.004,0.157,0.004l0,0V3.44L7.144,3.938  c-0.002,0-0.035-0.004-0.112-0.004l0,0c-0.436,0.002-1.988,0.108-3.26,1.585l0,0L3.393,5.19L3.393,5.19z"/>
<path d="M12.708,5.354c0,0,1.188,3.732,0.938,6.857c-0.75,1-1.375,1.291-2.375,1.791  c0.938-3.563,0.313-8.147-0.563-9.959C11.542,4.376,12.708,5.354,12.708,5.354z" fill="#1FB5FF"/>
<path d="M9.259,3.933c-0.078,0-0.11,0.004-0.11,0.004l0,0l-0.047-0.5c0.007,0,0.062-0.004,0.157-0.004l0,0  c0.509-0.002,2.23,0.128,3.639,1.756l0,0l-0.379,0.326C11.245,4.042,9.692,3.936,9.259,3.933L9.259,3.933z"/>
<path d="M8.056,9.046c-1.12,0-2.247,0.486-3.513,1.508l0,0L3.915,9.778C5.276,8.675,6.63,8.045,8.056,8.045l0,0  c1.398,0,2.791,0.605,4.256,1.771l0,0l-0.623,0.783C10.322,9.515,9.154,9.046,8.056,9.046L8.056,9.046z M4.542,10.554l0.002,0.002  L4.542,10.554L4.542,10.554z"/>
</svg>
