<?xml version="1.0" encoding="UTF-8"?>
<!DOCTYPE svg PUBLIC "-//W3C//DTD SVG 1.1 Tiny//EN" "http://www.w3.org/Graphics/SVG/1.1/DTD/svg11-tiny.dtd">
<svg baseProfile="tiny" height="16px" version="1.1" viewBox="-0.001 0 16 16" width="16px" x="0px" xmlns="http://www.w3.org/2000/svg" xmlns:xlink="http://www.w3.org/1999/xlink" y="0px">
<rect fill="none" height="16" width="16"/>
<radialGradient cx="7.8774" cy="5.0112" gradientUnits="userSpaceOnUse" id="SVGID_1_" r="8.363">
<stop offset="0" style="stop-color:#FFF000"/>
<stop offset="1" style="stop-color:#FFBF00"/>
</radialGradient>
<circle cx="7.999" cy="8" fill="url(#SVGID_1_)" r="6.5"/>
<circle cx="9.978" cy="5.811" r="2.5"/>
<circle cx="9.978" cy="5.811" fill="#FFFFFF" r="2"/>
<circle cx="9.513" cy="5.938" r="0.75"/>
<path d="M3.967,7.744c0.169-0.508,0.296-0.931,1.1-1.227c-0.973-0.211-1.861,0-2.581,1.143L2.075,7.787  C2.407,6.413,3.468,5.56,4.651,5.566l0,0c0.788-0.002,1.602,0.371,2.266,1.102l0,0L6.801,6.982c-0.931,0-1.819-0.169-2.623,0.719  L3.967,7.744z"/>
<path d="M12.833,9.199l-0.066-0.82C9.542,8.585,7.413,9.992,5.316,9.971C4.591,9.969,3.861,9.824,3.045,9.416l-0.356,0.716H2.687  c0.754,0.377,1.474,0.56,2.172,0.614c0.216,1.847,1.356,2.984,2.641,2.836c1.807-0.207,2.568-1.744,2.596-3.9  C10.939,9.451,11.832,9.255,12.833,9.199z"/>
<path d="M7.276,13.096c-0.5,0-0.973-0.268-1.33-0.75c-0.308-0.417-0.511-0.973-0.592-1.603  c0.304-0.292,1.156-0.48,1.955-0.207c0.344-0.484,1.87-0.76,2.242-0.635c0,1.818-0.802,3.032-2.109,3.185  C7.386,13.092,7.331,13.096,7.276,13.096L7.276,13.096z" fill="#FF2E00"/>
<path d="M7.999,1C4.134,1,1,4.134,1,8c0,3.867,3.134,7,6.999,7c3.866,0,7-3.133,7-7C15,4.134,11.865,1,7.999,1z M7.999,14.5  c-3.588,0-6.5-2.91-6.5-6.5c0-3.59,2.912-6.5,6.5-6.5c3.59,0,6.5,2.91,6.5,6.5C14.5,11.589,11.589,14.5,7.999,14.5z"/>
</svg>
