<?xml version="1.0" encoding="UTF-8"?>
<!DOCTYPE svg PUBLIC "-//W3C//DTD SVG 1.1 Tiny//EN" "http://www.w3.org/Graphics/SVG/1.1/DTD/svg11-tiny.dtd">
<svg baseProfile="tiny" height="16px" version="1.1" viewBox="-0.001 0 16 16" width="16px" x="0px" xmlns="http://www.w3.org/2000/svg" xmlns:xlink="http://www.w3.org/1999/xlink" y="0px">
<rect fill="none" height="16" width="15.999"/>
<radialGradient cx="7.8774" cy="5.0117" gradientUnits="userSpaceOnUse" id="SVGID_1_" r="8.3634">
<stop offset="0" style="stop-color:#FFF000"/>
<stop offset="1" style="stop-color:#FFBF00"/>
</radialGradient>
<circle cx="8" cy="8" fill="url(#SVGID_1_)" r="6.501"/>
<path d="M7.999,1C4.134,1,1,4.134,1,8c0,3.867,3.134,7,6.999,7c3.865,0,7-3.133,7-7C14.999,4.134,11.864,1,7.999,1z M7.999,14.5  c-3.588,0-6.5-2.91-6.5-6.5s2.912-6.5,6.5-6.5C11.588,1.5,14.5,4.41,14.5,8S11.588,14.5,7.999,14.5z"/>
<rect height="1" transform="matrix(0.9879 0.155 -0.155 0.9879 1.8535 -1.1029)" width="7" x="4.499" y="10.834"/>
<path d="M3.014,6.319c0.825,0,3.606,0,4,0c0,1.103-0.895,2-2,2C3.907,8.319,3.014,7.422,3.014,6.319z" fill="#FFFFFF"/>
<path d="M8.32,6.319c0.825,0,3.606,0,4,0c0,1.103-0.895,2-2,2C9.213,8.319,8.32,7.422,8.32,6.319z" fill="#FFFFFF"/>
<path d="M2.473,6.34h1.965C4.45,6.883,4.89,7.319,5.434,7.319c0.547,0,0.984-0.437,0.996-0.979h0.606v-0.8H2.473V6.34z M7.779,5.541  v0.8h1.964c0.013,0.542,0.453,0.979,0.996,0.979c0.547,0,0.984-0.437,0.996-0.979h0.606v-0.8H7.779z"/>
</svg>
