<?xml version="1.0" encoding="UTF-8" standalone="no"?>
<!DOCTYPE svg PUBLIC "-//W3C//DTD SVG 1.1 Tiny//EN" "http://www.w3.org/Graphics/SVG/1.1/DTD/svg11-tiny.dtd">
<svg xmlns="http://www.w3.org/2000/svg" xmlns:xlink="http://www.w3.org/1999/xlink" baseProfile="tiny" height="16" preserveAspectRatio="xMidYMid meet" viewBox="0 0 16 16" width="16">
<g>
<g>
<g transform="translate(0)">
<path d="M5.829 14.063 L3.35 14.058 L3.323 9.266 L3.742 9.198 L3.445 7.41 L5.733 7.057 L5.423 4.821 C4.329 4.715 3.468 3.79 3.468 2.665 C3.468 1.474 4.44 0.5 5.633 0.5 C6.827 0.5 7.799 1.473 7.799 2.665 C7.799 3.076 7.683 3.461 7.485 3.788 L8.948 3.588 L8.983 3.839 L11.636 3.839 L12.382 8.624 L9.936 9.032 L9.502 6.358 L9.332 6.361 L9.997 11.027 L12.679 11.009 L12.675 13.492 L7.883 13.518 L7.489 11.131 L5.834 11.412 L5.829 14.063 z" transform="translate(0 0.001)" style="fill:rgb(255,255,255);fill-rule:evenodd"/>
<path d="M5.633 4.318 C6.546 4.318 7.285 3.578 7.285 2.665 C7.285 1.752 6.546 1.014 5.633 1.014 C4.72 1.014 3.981 1.754 3.981 2.665 C3.981 3.579 4.72 4.318 5.633 4.318 M9.558 11.54 L9.263 9.629 L9.264 9.629 L8.744 5.85 L9.938 5.844 L10.358 8.443 L11.797 8.204 L11.197 4.351 L8.537 4.351 L8.513 4.163 L5.901 4.522 L6.309 7.487 L4.033 7.836 L4.273 9.275 L6.507 8.926 L6.553 9.254 L3.839 9.7 L3.859 13.549 L5.317 13.55 L5.32 10.983 L7.912 10.542 L8.315 13.007 L12.164 12.986 L12.166 11.527 L9.558 11.54" transform="translate(0.001 0.001)" style="fill:rgb(0,0,0);fill-rule:evenodd"/>
</g>
</g>
</g>
</svg>
