<?xml version="1.0" encoding="UTF-8"?>
<!DOCTYPE svg PUBLIC "-//W3C//DTD SVG 1.1 Tiny//EN" "http://www.w3.org/Graphics/SVG/1.1/DTD/svg11-tiny.dtd">
<svg baseProfile="tiny" height="16px" version="1.1" viewBox="-0.001 0 16 16" width="16px" x="0px" xmlns="http://www.w3.org/2000/svg" xmlns:xlink="http://www.w3.org/1999/xlink" y="0px">
<rect fill="none" height="16" width="15.999"/>
<radialGradient cx="7.8779" cy="5.0112" gradientUnits="userSpaceOnUse" id="SVGID_1_" r="8.363">
<stop offset="0" style="stop-color:#FFF000"/>
<stop offset="1" style="stop-color:#FFBF00"/>
</radialGradient>
<circle cx="8" cy="8" fill="url(#SVGID_1_)" r="6.5"/>
<path d="M7.999,1C4.134,1,1,4.134,1,8c0,3.867,3.134,7,6.999,7s7-3.133,7-7C14.999,4.134,11.864,1,7.999,1z M7.999,14.5  c-3.588,0-6.5-2.91-6.5-6.5c0-3.59,2.912-6.5,6.5-6.5c3.59,0,6.501,2.91,6.501,6.5C14.5,11.589,11.589,14.5,7.999,14.5z"/>
<circle cx="10.472" cy="5.552" r="2.25"/>
<circle cx="10.472" cy="5.552" fill="#FFFFFF" r="1.75"/>
<circle cx="10.472" cy="5.552" r="0.5"/>
<circle cx="5.527" cy="5.552" r="2.25"/>
<circle cx="5.527" cy="5.552" fill="#FFFFFF" r="1.77"/>
<circle cx="5.527" cy="5.552" r="0.5"/>
<path d="M11.364,11.173c0,1.552-1.507,2.558-3.365,2.558s-3.365-1.006-3.365-2.558s1.507-3.062,3.365-3.062  S11.364,9.622,11.364,11.173z" fill="#FF2E00"/>
<path d="M4.383,11.173c0.01-1.713,1.623-3.304,3.616-3.313l0,0c1.993,0.008,3.606,1.6,3.616,3.313l0,0  c-0.01,1.742-1.683,2.805-3.616,2.809l0,0C6.066,13.978,4.391,12.916,4.383,11.173L4.383,11.173z M4.885,11.173  c0.002,1.36,1.33,2.299,3.114,2.307l0,0c1.784-0.008,3.112-0.946,3.114-2.307l0,0c-0.002-1.391-1.391-2.809-3.114-2.811l0,0  C6.276,8.365,4.887,9.783,4.885,11.173L4.885,11.173z"/>
</svg>
