<?xml version="1.0" encoding="UTF-8" standalone="no"?>
<!DOCTYPE svg PUBLIC "-//W3C//DTD SVG 1.1 Tiny//EN" "http://www.w3.org/Graphics/SVG/1.1/DTD/svg11-tiny.dtd">
<svg xmlns="http://www.w3.org/2000/svg" xmlns:xlink="http://www.w3.org/1999/xlink" baseProfile="tiny" height="16" preserveAspectRatio="xMidYMid meet" viewBox="0 0 16 16" width="16">
<defs>
<linearGradient gradientUnits="userSpaceOnUse" id="shape4grad" x1="7.667" x2="7.667" y1="0.482" y2="8.281">
<stop offset="0" stop-color="#8C6336"/>
<stop offset="0.39" stop-color="#774D20"/>
<stop offset="1" stop-color="#592E00"/>
</linearGradient>
<linearGradient gradientUnits="userSpaceOnUse" id="shape5grad" x1="-361.699" x2="-361.699" y1="2.142" y2="7.819">
<stop offset="0" stop-color="#8C6336"/>
<stop offset="0.39" stop-color="#774D20"/>
<stop offset="1" stop-color="#592E00"/>
</linearGradient>
<linearGradient gradientUnits="userSpaceOnUse" id="shape6grad" x1="29.676" x2="29.676" y1="19.555" y2="25.232">
<stop offset="0" stop-color="#8C6336"/>
<stop offset="0.39" stop-color="#774D20"/>
<stop offset="1" stop-color="#592E00"/>
</linearGradient>
<linearGradient gradientUnits="userSpaceOnUse" id="shape9grad" x1="14.551" x2="11.972" y1="10.078" y2="10.078">
<stop offset="0" stop-color="#C0975F"/>
<stop offset="1" stop-color="#986D2F"/>
</linearGradient>
<linearGradient gradientUnits="userSpaceOnUse" id="shape10grad" x1="3.232" x2="11.975" y1="10.536" y2="10.536">
<stop offset="0" stop-color="#875924"/>
<stop offset="0.013" stop-color="#8D5F2A"/>
<stop offset="0.096" stop-color="#AF814C"/>
<stop offset="0.175" stop-color="#C79964"/>
<stop offset="0.248" stop-color="#D6A873"/>
<stop offset="0.308" stop-color="#DBAD78"/>
<stop offset="0.732" stop-color="#A4763F"/>
<stop offset="1" stop-color="#85571F"/>
</linearGradient>
<linearGradient gradientUnits="userSpaceOnUse" id="shape12grad" x1="1.483" x2="13.723" y1="13.409" y2="13.409">
<stop offset="0" stop-color="#986D2F"/>
<stop offset="0.231" stop-color="#C0975F"/>
<stop offset="1" stop-color="#986D2F"/>
</linearGradient>
</defs>
<g>
<g transform="translate(0.001) scale(1,1)">
<path d="M7.068,8.323C5.355,5.836,7.64,3.776,7.068,0.549C10.955,3.582,7.584,5.603,7.068,8.323z" fill="url(#shape4grad)" fill-opacity="0.359" fill-rule="evenodd" stroke-opacity="0.359" transform="translate(0,0.001)">
<animateTransform additive="replace" attributeName="transform" begin="0s" dur="1.50s" fill="freeze" keyTimes="0;0.334;1" type="translate" values="7.669,4.437;8.669,4.437;7.669,4.437"/>
<animateTransform additive="sum" attributeName="transform" begin="0s" fill="freeze" type="translate" values="-7.668,-4.435;-7.668,-4.435"/>
</path>
<path d="M6.632,7.85C8.134,6.04,6.131,4.539,6.632,2.191C3.225,4.397,6.182,5.869,6.632,7.85z" fill="url(#shape5grad)" fill-opacity="0.359" fill-rule="evenodd" stroke-opacity="0.359" transform="translate(0.001,0.001)">
<animateTransform additive="replace" attributeName="transform" begin="0s" dur="1.50s" fill="freeze" keyTimes="0;0.534;1" type="translate" values="6.106,5.021;9.481,5.021;6.106,5.021"/>
<animateTransform additive="sum" attributeName="transform" begin="0s" fill="freeze" type="translate" values="-6.105,-5.02;-6.105,-5.02"/>
</path>
<path d="M8.428,8.549C7.105,6.939,8.869,5.606,8.428,3.518C11.426,5.481,8.825,6.789,8.428,8.549z" fill="url(#shape6grad)" fill-opacity="0.359" fill-rule="evenodd" stroke-opacity="0.359" transform="translate(0,0)">
<animateTransform additive="replace" attributeName="transform" begin="0s" dur="1.50s" fill="freeze" keyTimes="0;0.467;1" type="translate" values="8.891,6.034;5.891,6.034;8.891,6.034"/>
<animateTransform additive="sum" attributeName="transform" begin="0s" fill="freeze" type="translate" values="-8.890,-6.033;-8.890,-6.033"/>
</path>
<path d="M2.711,14.468C1.624,14.065,1,13.414,1,12.685L1,12.247L3.05,12.247C2.853,11.839,2.75,11.392,2.75,10.934L2.75,7L12.366,7L12.366,7.923C12.514,7.89,12.665,7.875,12.815,7.875C14.02,7.875,15.001,8.855,15.001,10.060C15.001,11.266,14.021,12.245,12.815,12.245C12.575,12.245,14.115,12.247,14.115,12.247L14.115,12.685C14.115,13.415,13.492,14.064,12.402,14.468L2.711,14.468L2.711,14.468M12.877,9.622C12.603,9.622,12.379,9.846,12.379,10.121C12.379,10.398,12.602,10.623,12.877,10.623C13.153,10.623,13.379,10.398,13.379,10.121C13.379,9.846,13.153,9.622,12.877,9.622L12.877,9.622" fill="black" fill-rule="evenodd" transform="translate(0,0.001)"/>
<g transform="translate(0.001,0.001)">
<path d="M12.862,8.351C11.895,8.351,11.113,9.132,11.113,10.099C11.113,11.066,11.895,11.848,12.862,11.848C13.827,11.848,14.61,11.066,14.61,10.099C14.61,9.132,13.827,8.351,12.862,8.351M12.862,10.973C12.379,10.973,11.988,10.58,11.988,10.098C11.988,9.616,12.38,9.224,12.862,9.224C13.343,9.224,13.735,9.617,13.735,10.098C13.735,10.58,13.344,10.973,12.862,10.973" fill="url(#shape9grad)" fill-rule="evenodd" transform="translate(0,0)"/>
<path d="M11.976,10.973C11.976,12.421,10.8,13.595,9.353,13.595L5.855,13.595C4.407,13.595,3.232,12.421,3.232,10.973L3.232,10.973C3.232,9.524,3.232,7.475,3.232,7.475L11.974,7.475C11.976,7.475,11.976,9.523,11.976,10.973L11.976,10.973z" fill="url(#shape10grad)" fill-rule="evenodd" transform="translate(0,0)"/>
<path d="M6.474,10.973C6.474,12.421,6.572,13.595,6.572,13.595C5.431,13.595,4.507,12.421,4.507,10.973L4.507,10.973C4.507,9.524,4.507,7.475,4.507,7.475L6.474,7.475L6.474,10.973z" fill="white" fill-rule="evenodd" transform="translate(0.001,0)"/>
<path d="M2.911,14.096L12.296,14.096C13.158,13.777,13.723,13.282,13.723,12.721C10.662,12.721,4.39,12.721,1.483,12.721C1.482,13.282,2.049,13.775,2.911,14.096z" fill="url(#shape12grad)" fill-rule="evenodd" transform="translate(0,0)"/>
</g>
<rect fill="none" fill-rule="evenodd" height="16" width="16" x="0" y="0"/>
</g>
</g>
</svg>
