<?xml version="1.0" encoding="UTF-8"?>
<!DOCTYPE svg PUBLIC "-//W3C//DTD SVG 1.1 Tiny//EN" "http://www.w3.org/Graphics/SVG/1.1/DTD/svg11-tiny.dtd">
<svg baseProfile="tiny" height="16px" version="1.1" viewBox="-0.001 0 16 16" width="16px" x="0px" xmlns="http://www.w3.org/2000/svg" xmlns:xlink="http://www.w3.org/1999/xlink" y="0px">
<rect fill="none" height="16" width="15.999"/>
<radialGradient cx="7.8774" cy="5.0117" gradientUnits="userSpaceOnUse" id="SVGID_1_" r="8.3632">
<stop offset="0" style="stop-color:#FFDB00"/>
<stop offset="0.6324" style="stop-color:#FF7100"/>
<stop offset="1" style="stop-color:#FF3800"/>
</radialGradient>
<circle cx="8" cy="8" fill="url(#SVGID_1_)" r="6.5"/>
<path d="M10.251,4.719l1.063-0.656l-0.578-0.82L8.439,5.838l0.317-0.196C8.686,5.816,8.645,6.008,8.645,6.208  c0,0.828,0.671,1.5,1.5,1.5c0.828,0,1.5-0.672,1.5-1.5C11.645,5.416,11.028,4.774,10.251,4.719z M5.264,3.242l-0.579,0.82  L5.738,4.72C4.964,4.78,4.354,5.42,4.354,6.208c0,0.828,0.671,1.5,1.5,1.5c0.828,0,1.5-0.672,1.5-1.5  c0-0.193-0.04-0.377-0.106-0.546l0.357,0.223L5.264,3.242z"/>
<circle cx="5.854" cy="6.208" fill="#FFFFFF" r="1"/>
<circle cx="10.145" cy="6.208" fill="#FFFFFF" r="1"/>
<circle cx="10.145" cy="6.208" r="0.5"/>
<circle cx="5.853" cy="6.208" r="0.5"/>
<path d="M12.062,10.334c0,0.667-0.541,1.208-1.209,1.208H5.146c-0.667,0-1.208-0.541-1.208-1.208l0,0  c0-0.668,0.541-1.209,1.208-1.209h5.707C11.521,9.125,12.062,9.666,12.062,10.334L12.062,10.334z" fill="#FFFFFF"/>
<path d="M10.854,8.626H5.145c-0.941,0-1.707,0.766-1.707,1.709c0,0.941,0.766,1.707,1.707,1.707h5.708  c0.941,0,1.707-0.766,1.707-1.707C12.561,9.392,11.795,8.626,10.854,8.626z M8.375,9.125h1.563v2.417H8.375V9.125z M7.625,11.542  H6.062V9.125h1.563V11.542z M3.937,10.334c0-0.668,0.541-1.209,1.208-1.209h0.166v2.417H5.146  C4.478,11.542,3.937,11.001,3.937,10.334z M10.853,11.542h-0.165V9.125h0.165c0.668,0,1.209,0.541,1.209,1.209  C12.062,11.001,11.521,11.542,10.853,11.542z"/>
<path d="M7.999,1C4.134,1,1,4.134,1,8c0,3.867,3.134,7,6.999,7s7-3.133,7-7C14.999,4.134,11.864,1,7.999,1z M7.999,14.5  c-3.588,0-6.5-2.91-6.5-6.5s2.912-6.5,6.5-6.5c3.59,0,6.501,2.91,6.501,6.5S11.589,14.5,7.999,14.5z"/>
</svg>
