<?xml version="1.0" encoding="UTF-8" standalone="no"?>
<!DOCTYPE svg PUBLIC "-//W3C//DTD SVG 1.1 Tiny//EN" "http://www.w3.org/Graphics/SVG/1.1/DTD/svg11-tiny.dtd">
<svg xmlns="http://www.w3.org/2000/svg" xmlns:xlink="http://www.w3.org/1999/xlink" baseProfile="tiny" height="16" preserveAspectRatio="xMidYMid meet" viewBox="0 0 16 16" width="16">
<g>
<g>
<g transform="translate(0)">
<animate attributeName="display" begin="0s" calcMode="discrete" dur="0.40s" fill="freeze" keyTimes="0;0.25;1" values="inline;none;inline"/>
<path d="M5.829,14.063L3.35,14.058L3.323,9.266L3.742,9.198L3.445,7.41L5.733,7.057L5.423,4.821C4.329,4.715,3.468,3.79,3.468,2.665C3.468,1.474,4.44,0.5,5.633,0.5C6.827,0.5,7.799,1.473,7.799,2.665C7.799,3.076,7.683,3.461,7.485,3.788L8.948,3.588L8.983,3.839L11.636,3.839L12.382,8.624L9.936,9.032L9.502,6.358L9.332,6.361L9.997,11.027L12.679,11.009L12.675,13.492L7.883,13.518L7.489,11.131L5.834,11.412L5.829,14.063L5.829,14.063z" fill="white" fill-rule="evenodd" transform="translate(0,0.001)"/>
<path d="M5.633,4.318C6.546,4.318,7.285,3.578,7.285,2.665C7.285,1.752,6.546,1.014,5.633,1.014C4.720,1.014,3.981,1.754,3.981,2.665C3.981,3.579,4.720,4.318,5.633,4.318M9.558,11.54L9.263,9.629L9.264,9.629L8.744,5.85L9.938,5.844L10.358,8.443L11.797,8.204L11.197,4.351L8.537,4.351L8.513,4.163L5.901,4.522L6.309,7.487L4.033,7.836L4.273,9.275L6.507,8.926L6.553,9.254L3.839,9.7L3.859,13.549L5.317,13.55L5.32,10.983L7.912,10.542L8.315,13.007L12.164,12.986L12.166,11.527L9.558,11.54" fill="black" fill-rule="evenodd" transform="translate(0.001,0.001)"/>
</g>
<g display="none" transform="translate(0,0)">
<animate attributeName="display" begin="0s" calcMode="discrete" dur="0.40s" fill="freeze" keyTimes="0;0.25;0.5;0.75;1" values="none;inline;none;inline;none"/>
<path d="M6.009,15.487L3.655,11.313L5.345,9.974L4.549,8.931L5.857,7.968L5.424,4.817C4.329,4.712,3.471,3.787,3.471,2.665C3.471,1.473,4.441,0.502,5.634,0.502C6.827,0.502,7.797,1.472,7.797,2.665C7.797,3.076,7.682,3.46,7.483,3.787L8.948,3.586L9.061,4.393L11.82,6.257L9.759,10.639L9.408,10.48L9.273,11.232L11.818,12.085L11.006,14.433L7.626,13.29L8.178,14.283L6.009,15.487L6.009,15.487z" fill="white" fill-rule="evenodd" transform="translate(0.001,0)"/>
<path d="M5.633,4.318C6.546,4.318,7.285,3.578,7.285,2.665C7.285,1.752,6.546,1.014,5.633,1.014C4.720,1.014,3.981,1.754,3.981,2.665C3.981,3.579,4.720,4.318,5.633,4.318M9.021,9.74L9.511,9.964L11.171,6.437L8.584,4.69L8.513,4.163L5.901,4.522L6.407,8.197L5.273,9.035L6.054,10.064L4.316,11.442L6.207,14.793L7.482,14.086L6.236,11.841L7.313,10.976L7.044,12.555L10.691,13.785L11.166,12.406L8.693,11.574L9.021,9.74M9.29,6.968L9.018,7.614L8.858,6.679L9.29,6.968" fill="black" fill-rule="evenodd" transform="translate(0.001,0)"/>
</g>
<g display="none" transform="translate(0,0.001)">
<animate attributeName="display" begin="0s" calcMode="discrete" dur="0.30s" fill="freeze" keyTimes="0;0.667;1" values="none;inline;none"/>
<path d="M7.533,15.5L4.374,11.895L5.389,10.7L5.127,10.132L4.66,10.336L3.638,8.07L5.745,7.15L5.424,4.817C4.329,4.713,3.468,3.787,3.468,2.665C3.468,1.473,4.438,0.502,5.633,0.502C6.826,0.502,7.797,1.472,7.797,2.665C7.797,3.076,7.683,3.46,7.482,3.785L8.948,3.585L9.799,9.751L8.445,11.771L10.382,13.57L8.695,15.388L8.195,14.928L7.533,15.5L7.533,15.5z" fill="white" fill-rule="evenodd" transform="translate(0,0.001)"/>
<path d="M5.633,4.318C6.546,4.318,7.285,3.578,7.285,2.665C7.285,1.752,6.546,1.014,5.633,1.014C4.720,1.014,3.981,1.754,3.981,2.665C3.981,3.579,4.720,4.318,5.633,4.318M7.777,11.851L9.264,9.629L8.513,4.163L5.901,4.522L6.306,7.463L4.317,8.334L4.918,9.665L5.351,9.476L5.566,9.867L6.564,9.336L6.651,9.962L5.047,11.886L7.582,14.781L8.204,14.244L8.667,14.668L9.659,13.599L7.777,11.851" fill="black" fill-rule="evenodd" transform="translate(0,0.001)"/>
</g>
<rect fill="none" fill-rule="evenodd" height="16" width="16" x="0" y="0"/>
</g>
</g>
</svg>
