<?xml version="1.0" encoding="UTF-8" standalone="no"?>
<!DOCTYPE svg PUBLIC "-//W3C//DTD SVG 1.1 Tiny//EN" "http://www.w3.org/Graphics/SVG/1.1/DTD/svg11-tiny.dtd">
<svg xmlns="http://www.w3.org/2000/svg" xmlns:xlink="http://www.w3.org/1999/xlink" baseProfile="tiny" height="16" preserveAspectRatio="xMidYMid meet" viewBox="0 0 16 16" width="16">
<defs>
<radialGradient cx="7.878" cy="5.012" gradientUnits="userSpaceOnUse" id="shape7grad" r="8.364">
<stop offset="0" stop-color="#FFF000"/>
<stop offset="1" stop-color="#FFBF00"/>
</radialGradient>
</defs>
<g>
<g transform="translate(0.001) scale(1,1)">
<g>
<rect fill="none" fill-rule="evenodd" height="16" width="16" x="0" y="0"/>
<circle cx="8" cy="8" fill="black" fill-rule="evenodd" r="7"/>
<path d="M14.5,8C14.5,11.59,11.589,14.5,8,14.5C4.41,14.5,1.5,11.59,1.5,8C1.5,4.411,4.41,1.5,8,1.5C11.589,1.5,14.5,4.411,14.5,8z" fill="url(#shape7grad)" fill-rule="evenodd" transform="translate(0)"/>
</g>
<path d="M7.69,6.626C7.69,7.731,6.795,8.626,5.688,8.626C4.584,8.626,3.69,7.731,3.69,6.626C3.69,5.521,4.585,4.626,5.688,4.626C6.796,4.626,7.69,5.521,7.69,6.626z" fill="white" fill-rule="evenodd" transform="translate(0,0.001)">
<animateTransform additive="replace" attributeName="transform" begin="0s" fill="freeze" type="translate" values="5.689,6.627;5.689,6.627"/>
<animateTransform additive="sum" attributeName="transform" begin="0s" dur="0.30s" fill="freeze" keyTimes="0;1" type="scale" values="1,1;1.201,1.201"/>
<animateTransform additive="sum" attributeName="transform" begin="0s" fill="freeze" type="translate" values="-5.689,-6.625;-5.689,-6.625"/>
</path>
<path d="M12.311,6.626C12.311,7.731,11.415,8.626,10.311,8.626C9.206,8.626,8.311,7.731,8.311,6.626C8.311,5.522,9.206,4.626,10.311,4.626C11.415,4.626,12.311,5.522,12.311,6.626z" fill="white" fill-rule="evenodd" transform="translate(0,0.001)">
<animateTransform additive="replace" attributeName="transform" begin="0s" fill="freeze" type="translate" values="10.31,6.627;10.31,6.627"/>
<animateTransform additive="sum" attributeName="transform" begin="0s" dur="0.30s" fill="freeze" keyTimes="0;1" type="scale" values="1,1;1.201,1.201"/>
<animateTransform additive="sum" attributeName="transform" begin="0s" fill="freeze" type="translate" values="-10.31,-6.626;-10.31,-6.626"/>
</path>
<path d="M6.69,6.626C6.69,7.179,6.242,7.626,5.69,7.626C5.137,7.626,4.69,7.179,4.69,6.626C4.69,6.074,5.137,5.626,5.69,5.626C6.242,5.626,6.69,6.074,6.69,6.626z" fill="black" fill-rule="evenodd" transform="translate(0,0.001)">
<animateTransform additive="replace" attributeName="transform" begin="0s" dur="1s" fill="freeze" keyTimes="0;0.201;0.601;1" type="translate" values="5.689,6.627;5.689,6.627;6.689,6.627;6.689,6.627"/>
<animateTransform additive="sum" attributeName="transform" begin="0s" fill="freeze" type="translate" values="-5.689,-6.625;-5.689,-6.625"/>
</path>
<path d="M11.311,6.626C11.311,7.179,10.863,7.626,10.311,7.626C9.758,7.626,9.311,7.179,9.311,6.626C9.311,6.074,9.758,5.626,10.311,5.626C10.863,5.626,11.311,6.074,11.311,6.626z" fill="black" fill-rule="evenodd" transform="translate(0,0.001)">
<animateTransform additive="replace" attributeName="transform" begin="0s" dur="1s" fill="freeze" keyTimes="0;0.201;0.601;1" type="translate" values="10.31,6.627;10.31,6.627;9.310,6.627;9.310,6.627"/>
<animateTransform additive="sum" attributeName="transform" begin="0s" fill="freeze" type="translate" values="-10.31,-6.625;-10.31,-6.625"/>
</path>
<path d="M8,12.507C6.096,12.507,4.516,11.212,4.030,9.461L3.168,9.461C3.672,11.685,5.625,13.358,8,13.358C10.376,13.358,12.329,11.685,12.834,9.462L11.971,9.462C11.485,11.212,9.905,12.507,8,12.507z" fill="black" fill-rule="evenodd" transform="translate(0,0.001)">
<animate attributeName="display" begin="0s" calcMode="discrete" dur="0.10s" fill="freeze" keyTimes="0;1" values="inline;none"/>
</path>
<g display="none" transform="translate(0.001)">
<animate attributeName="display" begin="0s" calcMode="discrete" dur="0.20s" fill="freeze" keyTimes="0;1" values="none;inline"/>
<path d="M13.105,9.563L13.037,8.744C9.813,8.95,7.683,10.356,5.587,10.336C4.862,10.334,4.132,10.190,3.316,9.78L2.961,10.495L2.958,10.495C3.711,10.872,4.431,11.056,5.129,11.11C5.345,12.956,6.485,14.094,7.77,13.946C9.577,13.739,10.338,12.202,10.367,10.046C11.209,9.815,12.103,9.62,13.105,9.563z" fill="black" fill-rule="evenodd" transform="translate(0,0.001)"/>
<path d="M7.547,13.459C7.047,13.459,6.573,13.191,6.217,12.709C5.908,12.293,5.705,11.737,5.625,11.107C5.928,10.814,6.781,10.627,7.579,10.9C7.923,10.416,9.45,10.140,9.822,10.265C9.822,12.083,9.020,13.296,7.712,13.449C7.657,13.457,7.603,13.459,7.547,13.459L7.547,13.459z" fill="#FF2E00" fill-rule="evenodd" transform="translate(0.001,0.001)"/>
</g>
<g display="none" transform="translate(-1.451,-0.416) scale(1.14,1)">
<animate attributeName="display" begin="0s" calcMode="discrete" dur="0.20s" fill="freeze" keyTimes="0;0.5;1" values="none;inline;none"/>
<path d="M5.619,10.992C7.499,12.303,10.087,11.839,11.396,9.959L12.093,10.445C10.517,12.709,7.398,13.267,5.133,11.688C5.291,11.459,5.473,11.202,5.619,10.992z" fill="black" fill-rule="evenodd" transform="translate(0,0.001)"/>
</g>
</g>
</g>
</svg>
