<?xml version="1.0" encoding="UTF-8"?>
<!DOCTYPE svg PUBLIC "-//W3C//DTD SVG 1.1 Tiny//EN" "http://www.w3.org/Graphics/SVG/1.1/DTD/svg11-tiny.dtd">
<svg baseProfile="tiny" height="16px" version="1.1" viewBox="-0.001 0 16 16" width="16px" x="0px" xmlns="http://www.w3.org/2000/svg" xmlns:xlink="http://www.w3.org/1999/xlink" y="0px">
<rect fill="none" height="16" width="15.999"/>
<radialGradient cx="7.8779" cy="5.0117" gradientUnits="userSpaceOnUse" id="SVGID_1_" r="8.363">
<stop offset="0" style="stop-color:#FFF000"/>
<stop offset="1" style="stop-color:#FFBF00"/>
</radialGradient>
<circle cx="8" cy="8" fill="url(#SVGID_1_)" r="6.5"/>
<path d="M10.936,10.649c-1.621,1.62-4.25,1.619-5.87-0.001L4.464,11.25c1.952,1.952,5.12,1.952,7.071,0  C11.338,11.051,11.115,10.83,10.936,10.649z"/>
<path d="M14.641,5.875h-1.495c-0.177-0.282-0.476-0.479-0.833-0.479H3.687c-0.357,0-0.656,0.197-0.833,0.479H1.359v1.5h1.328v1.25  c0,0.553,0.448,1,1,1h3c0.552,0,1-0.447,1-1v-1.25h0.625v1.25c0,0.553,0.447,1,1,1h3c0.553,0,1-0.447,1-1v-1.25h1.328V5.875z"/>
<path d="M6.687,9.125h-3c-0.275,0-0.501-0.226-0.501-0.501V6.396c0-0.275,0.226-0.502,0.501-0.502h3  c0.275,0,0.501,0.227,0.501,0.502v2.229C7.188,8.899,6.962,9.125,6.687,9.125L6.687,9.125z" fill="#FFFFFF"/>
<path d="M12.312,9.125H9.313c-0.275,0-0.502-0.226-0.502-0.501V6.396c0-0.275,0.227-0.502,0.502-0.502h2.999  c0.275,0,0.501,0.227,0.501,0.502v2.229C12.813,8.899,12.587,9.125,12.312,9.125L12.312,9.125z" fill="#FFFFFF"/>
<circle cx="5.171" cy="7.516" r="0.75"/>
<circle cx="10.828" cy="7.516" r="0.75"/>
<path d="M7.999,1C4.134,1,1,4.134,1,8c0,3.867,3.134,7,6.999,7s7-3.133,7-7C14.999,4.134,11.864,1,7.999,1z M8,14.5  c-3.588,0-6.5-2.91-6.5-6.5S4.412,1.5,8,1.5c3.59,0,6.5,2.91,6.5,6.5S11.59,14.5,8,14.5z"/>
</svg>
