<?xml version="1.0" encoding="UTF-8"?>
<!DOCTYPE svg PUBLIC "-//W3C//DTD SVG 1.1 Tiny//EN" "http://www.w3.org/Graphics/SVG/1.1/DTD/svg11-tiny.dtd">
<svg baseProfile="tiny" height="16px" version="1.1" viewBox="-0.001 0 16 16" width="16px" x="0px" xmlns="http://www.w3.org/2000/svg" xmlns:xlink="http://www.w3.org/1999/xlink" y="0px">
<radialGradient cx="8" cy="7.7183" gradientUnits="userSpaceOnUse" id="SVGID_1_" r="6.3124">
<stop offset="0" style="stop-color:#FF7800"/>
<stop offset="0.176" style="stop-color:#FF7400"/>
<stop offset="0.3604" style="stop-color:#FF6700"/>
<stop offset="0.5486" style="stop-color:#FF5200"/>
<stop offset="0.7395" style="stop-color:#FF3500"/>
<stop offset="0.9306" style="stop-color:#FF1000"/>
<stop offset="1" style="stop-color:#FF0000"/>
</radialGradient>
<path d="M7.995,13.304c-0.59-0.828-1.6-1.843-2.805-2.631  c-1.92-1.26-3.915-2.804-4.126-4.705C0.821,3.782,2.19,2.611,3.55,2.244c0.281-0.073,0.565-0.111,0.848-0.111  c1.344,0,2.479,0.848,3.116,2.331L8.006,5.61l0.491-1.146c0.637-1.483,1.766-2.331,3.096-2.331c0.283,0,0.566,0.038,0.844,0.111  c1.389,0.375,2.771,1.546,2.49,3.716c-0.252,1.965-2.475,3.632-4.126,4.713C9.597,11.463,8.585,12.479,7.995,13.304L7.995,13.304z" fill="url(#SVGID_1_)" fill-rule="evenodd"/>
<rect fill="none" fill-rule="evenodd" height="16" width="15.999"/>
<path d="M12.577,1.728c-1.651-0.445-3.574,0.2-4.57,2.525  C7.01,1.928,5.064,1.282,3.413,1.728c-1.549,0.417-3.161,1.786-2.881,4.3C0.78,8.267,3.144,9.973,4.896,11.12  c1.7,1.114,2.91,2.637,3.099,3.285c0.189-0.648,1.398-2.171,3.099-3.285c1.753-1.147,4.085-2.915,4.364-5.093  C15.78,3.519,14.128,2.145,12.577,1.728z M14.927,5.96c-0.252,1.965-2.475,3.632-4.126,4.713c-1.204,0.79-2.216,1.806-2.806,2.631  c-0.59-0.828-1.601-1.843-2.805-2.631C3.27,9.413,1.275,7.869,1.064,5.968C0.821,3.782,2.19,2.611,3.55,2.244  c0.281-0.073,0.565-0.111,0.848-0.111c1.345,0,2.48,0.848,3.117,2.331L8.006,5.61l0.491-1.146c0.637-1.483,1.766-2.331,3.096-2.331  c0.283,0,0.566,0.038,0.844,0.111C13.825,2.619,15.208,3.79,14.927,5.96z" fill-rule="evenodd"/>
</svg>
