<?xml version="1.0" encoding="UTF-8"?>
<!DOCTYPE svg PUBLIC "-//W3C//DTD SVG 1.1 Tiny//EN" "http://www.w3.org/Graphics/SVG/1.1/DTD/svg11-tiny.dtd">
<svg baseProfile="tiny" height="16px" version="1.1" viewBox="-0.001 0 16 16" width="16px" x="0px" xmlns="http://www.w3.org/2000/svg" xmlns:xlink="http://www.w3.org/1999/xlink" y="0px">
<rect fill="none" height="16" width="16"/>
<radialGradient cx="7.8774" cy="5.0112" gradientUnits="userSpaceOnUse" id="SVGID_1_" r="8.363">
<stop offset="0" style="stop-color:#FFF000"/>
<stop offset="1" style="stop-color:#FFBF00"/>
</radialGradient>
<circle cx="7.999" cy="8" fill="url(#SVGID_1_)" r="6.5"/>
<path d="M7.999,1C4.134,1,1,4.134,1,8c0,3.867,3.134,7,6.999,7c3.866,0,7-3.133,7-7C15,4.134,11.865,1,7.999,1z M7.999,14.5  c-3.588,0-6.5-2.91-6.5-6.5c0-3.59,2.912-6.5,6.5-6.5c3.59,0,6.5,2.91,6.5,6.5C14.5,11.589,11.589,14.5,7.999,14.5z"/>
<rect height="1" width="7" x="4.5" y="10.834"/>
<circle cx="10.095" cy="7.084" fill="#FFFFFF" r="2"/>
<circle cx="10.095" cy="7.459" r="1"/>
<circle cx="5.904" cy="7.084" fill="#FFFFFF" r="2"/>
<circle cx="5.904" cy="7.459" r="1"/>
</svg>
