<?xml version="1.0" encoding="UTF-8" standalone="no"?>
<!DOCTYPE svg PUBLIC "-//W3C//DTD SVG 1.1 Tiny//EN" "http://www.w3.org/Graphics/SVG/1.1/DTD/svg11-tiny.dtd">
<svg xmlns="http://www.w3.org/2000/svg" xmlns:xlink="http://www.w3.org/1999/xlink" baseProfile="tiny" height="16" preserveAspectRatio="xMidYMid meet" viewBox="-8 -8 16 16" width="16">
<defs>
<radialGradient cx="7.881" cy="5.012" gradientUnits="userSpaceOnUse" id="shape4grad" r="8.364">
<stop offset="0" stop-color="#FFF000"/>
<stop offset="1" stop-color="#FFBF00"/>
</radialGradient>
</defs>
<g>
<circle cx="8" cy="8" r="7" transform="translate(-7.945 -8.079)" style="fill:rgb(0,0,0);fill-rule:evenodd"/>
<path d="M14.504 8 C14.504 11.59 11.593 14.5 8.004 14.5 C4.414 14.5 1.504 11.59 1.504 8 C1.504 4.411 4.414 1.5 8.004 1.5 C11.593 1.5 14.504 4.411 14.504 8 z" transform="translate(-7.945 -8.079)" style="fill:url(#shape4grad);fill-rule:evenodd"/>
<path d="M7.985 12.915 C7.391 12.888 6.87 12.481 7.023 12.053 C7.15 11.698 7.211 11.247 7.98 11.247 C8.749 11.247 8.884 11.756 8.995 12.053 C9.113 12.375 8.577 12.945 7.985 12.915 z" transform="translate(-7.945 -8.079)" style="fill:rgb(225,11,11);fill-rule:evenodd"/>
<g transform="translate(-7.945 -8.079)">
<ellipse cx="0" cy="0" rx="1.89" ry="1.986" transform="translate(5.75 7.139)" style="fill:rgb(255,255,255);fill-rule:evenodd"/>
<ellipse cx="0" cy="0" rx="1.098" ry="1.152" transform="translate(5.75 7.139)" style="fill:rgb(0,0,0);fill-rule:evenodd"/>
</g>
<g transform="translate(-7.945 -8.079)">
<ellipse cx="0" cy="0" rx="1.89" ry="1.986" transform="translate(10.37 7.139)" style="fill:rgb(255,255,255);fill-rule:evenodd"/>
<ellipse cx="0" cy="0" rx="1.098" ry="1.152" transform="translate(10.37 7.139)" style="fill:rgb(0,0,0);fill-rule:evenodd"/>
</g>
<path d="M-2.352 -0.966 C-2.208 -1.357 -1.089 -1.304 0.147 -0.847 C1.382 -0.39 2.267 0.297 2.122 0.688 C1.978 1.079 1.152 0.233 -0.084 -0.224 C-1.319 -0.681 -2.497 -0.575 -2.352 -0.966 z" transform="translate(3.603 -2.861) scale(0.73 0.944)" style="fill:rgb(0,0,0);fill-rule:evenodd"/>
<path d="M-2.191 0.412 C-2.449 0.055 -1.591 -0.483 -0.275 -0.79 C1.042 -1.097 2.318 -1.056 2.576 -0.699 C2.834 -0.342 1.453 -0.528 0.137 -0.221 C-1.18 0.085 -1.933 0.769 -2.191 0.412 z" transform="translate(-2.983 -3.035) scale(0.781 1.096)" style="fill:rgb(0,0,0);fill-rule:evenodd"/>
</g>
</svg>
